<?xml version="1.0" standalone="no"?><!DOCTYPE svg PUBLIC "-//W3C//DTD SVG 1.1//EN" "http://www.w3.org/Graphics/SVG/1.1/DTD/svg11.dtd"><svg t="1525405721313" class="icon" style="" viewBox="0 0 1024 1024" version="1.1" xmlns="http://www.w3.org/2000/svg" p-id="2472" xmlns:xlink="http://www.w3.org/1999/xlink" width="200" height="200"><defs><style type="text/css"></style></defs><path d="M291.783 392.009c-30.761 0-55.694 25.326-55.694 56.583 0 31.261 24.934 56.591 55.694 56.591 30.756 0 55.69-25.33 55.69-56.591 0.001-31.257-24.934-56.583-55.69-56.583z m222.784 0c-30.761 0-55.696 25.326-55.696 56.583 0 31.261 24.939 56.591 55.696 56.591 30.755 0 55.694-25.33 55.694-56.591 0.001-31.257-24.939-56.583-55.694-56.583z m222.783 0c-30.76 0-55.694 25.326-55.694 56.583 0 31.261 24.935 56.591 55.694 56.591 30.756 0 55.695-25.33 55.695-56.591 0-31.257-24.94-56.583-55.695-56.583zM180.389 109.087C118.878 109.087 69 159.763 69 222.261v424.38c0 62.507 50.991 120.118 113.923 120.118H352.67c29.593 30.871 139.542 140.747 139.542 140.747 12.343 12.352 31.92 12.068 43.899-0.753 0 0 77.961-84.517 136.379-139.994h173.718c62.931 0 113.922-57.616 113.922-120.118v-424.38c0-62.498-49.869-113.174-111.39-113.174H180.389z m665.818 601.589H675.37c-20.697 0-39.301 20.844-39.301 20.844l-99.216 102.254c-12.31 12.688-32.379 12.292-44 0L396.187 731.52s-22.844-20.844-42.429-20.844H182.923c-31.466 0-58.224-32.785-58.224-64.035v-424.38c0-31.252 24.935-56.591 55.69-56.591h668.35c30.756 0 55.699 25.338 55.699 56.591v424.38c0 31.25-26.761 64.035-58.231 64.035z m0 0" p-id="2473"></path></svg>